<svg width="201" height="41" viewBox="0 0 201 41" fill="none" xmlns="http://www.w3.org/2000/svg">
<path d="M56.3551 19.1036H59.8915L60.2263 19.1048C61.4948 19.1136 62.5933 19.1728 63.5217 19.2825C64.5308 19.4017 65.3814 19.5782 66.0735 19.8121C66.7656 20.0459 67.317 20.3371 67.7278 20.6856C68.1386 21.0341 68.4557 21.4307 68.6789 21.8755C68.9022 22.3202 69.0473 22.8178 69.1143 23.368C69.1812 23.9182 69.2147 24.5143 69.2147 25.1563C69.2147 25.7982 69.1589 26.4012 69.0473 26.9652C68.9357 27.5292 68.737 28.045 68.4512 28.5127C68.1654 28.9804 67.777 29.3977 67.2858 29.7645C66.7946 30.1313 66.1695 30.4431 65.4104 30.6999C64.6513 30.9567 63.7382 31.1516 62.6711 31.2846C61.6039 31.4175 60.3559 31.484 58.927 31.484H55.4978C54.2118 31.484 53.0866 31.4336 52.1221 31.3327C51.1577 31.2318 50.3271 31.0782 49.6306 30.8719C48.934 30.6655 48.358 30.4042 47.9026 30.0878C47.4471 29.7714 47.0832 29.4 46.8108 28.9736C46.5385 28.5471 46.3487 28.0611 46.2415 27.5154C46.1344 26.9698 46.0808 26.3668 46.0808 25.7065H48.6527C48.6527 26.5319 48.7688 27.1784 49.001 27.6461C49.2332 28.1138 49.6172 28.4646 50.153 28.6984C50.6888 28.9323 51.3921 29.079 52.2628 29.1386L52.4757 29.1524C53.3074 29.2028 54.3147 29.228 55.4978 29.228H58.927L59.2446 29.2269C60.604 29.2172 61.7439 29.1442 62.6644 29.0079C63.6556 28.8612 64.4459 28.6274 65.0353 28.3064C65.6248 27.9854 66.04 27.5659 66.2811 27.0477C66.5222 26.5296 66.6428 25.8991 66.6428 25.1563C66.6428 24.4134 66.5602 23.7944 66.395 23.2992C66.2298 22.804 65.9038 22.4097 65.4171 22.1162C64.9304 21.8227 64.245 21.6141 63.3609 21.4903C62.5073 21.3708 61.3998 21.3089 60.0383 21.3048L56.3551 21.3046C54.7834 21.3046 53.4371 21.245 52.3164 21.1258C51.1956 21.0065 50.2557 20.8346 49.4966 20.6099C48.7375 20.3852 48.1303 20.1055 47.6748 19.7708C47.2194 19.4361 46.8733 19.0532 46.6367 18.6222C46.4 18.1912 46.246 17.712 46.1745 17.1847C46.1031 16.6574 46.0674 16.0865 46.0674 15.4721C46.0674 14.8301 46.1232 14.234 46.2348 13.6838C46.3465 13.1335 46.5541 12.636 46.8577 12.1913C47.1613 11.7465 47.5766 11.3499 48.1035 11.0014C48.6304 10.6529 49.3068 10.3617 50.1329 10.1279C50.959 9.89401 51.9524 9.71748 53.1134 9.59826C54.2279 9.48381 55.5317 9.4243 57.0248 9.41972L59.7843 9.41943C61.0703 9.41943 62.1955 9.46758 63.16 9.56387C64.1245 9.66016 64.955 9.81148 65.6515 10.0178C66.3481 10.2242 66.9263 10.4809 67.3862 10.7882C67.8462 11.0954 68.2123 11.4622 68.4847 11.8886C68.7571 12.3151 68.9468 12.7988 69.054 13.3399C69.1611 13.881 69.2147 14.4816 69.2147 15.1419H66.6428C66.6428 14.3166 66.5267 13.67 66.2945 13.2023C66.0623 12.7346 65.6783 12.3838 65.1425 12.15C64.6067 11.9161 63.9012 11.7694 63.026 11.7098L62.803 11.6955C62.0072 11.6477 61.0543 11.6227 59.944 11.6205L57.2124 11.6204C55.4978 11.6204 54.0868 11.6823 52.9794 11.8061C51.8721 11.9299 50.9969 12.1385 50.3539 12.432C49.7109 12.7255 49.2644 13.1198 49.0144 13.615C48.7643 14.1102 48.6393 14.7292 48.6393 15.4721C48.6393 15.9306 48.6706 16.3387 48.7331 16.6963C48.7956 17.054 48.9228 17.3681 49.1148 17.6386C49.3069 17.9092 49.577 18.1361 49.9253 18.3196C50.2736 18.503 50.7335 18.6543 51.305 18.7735C51.8448 18.8861 52.4981 18.968 53.2649 19.0193L53.4014 19.028C54.2275 19.0784 55.212 19.1036 56.3551 19.1036Z" fill="#1B2124"/>
<path d="M88.4032 9.85938C89.6802 9.85938 90.7585 9.91669 91.6382 10.0313C92.5178 10.146 93.2434 10.3179 93.8149 10.5472C94.3865 10.7764 94.8263 11.0607 95.1344 11.4C95.4425 11.7394 95.668 12.1383 95.8109 12.5968C95.9538 13.0553 96.0364 13.5689 96.0587 14.1375C96.081 14.7061 96.0922 15.3342 96.0922 16.0221C96.0922 16.7374 96.0765 17.3976 96.0453 18.0029C96.014 18.6082 95.9113 19.1561 95.7372 19.6468C95.563 20.1374 95.2862 20.5684 94.9067 20.9398C94.5271 21.3112 93.9869 21.6207 93.2858 21.8683C92.5848 22.116 91.6962 22.3039 90.6201 22.4323C89.5825 22.5561 88.3144 22.6203 86.8158 22.6247L75.5168 22.6249V30.9886H72.9448V9.85938H88.4032ZM75.5168 12.0603V20.424L86.7964 20.4238C87.8748 20.4221 88.7877 20.4015 89.5351 20.3621L89.6573 20.3553C90.384 20.3127 90.9885 20.2393 91.4707 20.1351C91.9798 20.025 92.3727 19.8691 92.6495 19.6674C92.9264 19.4656 93.1295 19.1997 93.259 18.8695C93.3885 18.5394 93.4644 18.1428 93.4868 17.6796C93.5046 17.3092 93.5153 16.8814 93.5189 16.3965L93.5202 16.0221C93.5202 15.426 93.5091 14.9124 93.4868 14.4814C93.4644 14.0504 93.3885 13.6881 93.259 13.3947C93.1295 13.1012 92.9264 12.8673 92.6495 12.6931C92.3727 12.5189 91.9798 12.3836 91.4707 12.2873C91.0153 12.2011 90.4508 12.1425 89.7773 12.1114L89.5351 12.1016C88.8216 12.0765 87.9574 12.0628 86.9425 12.0606L75.5168 12.0603Z" fill="#1B2124"/>
<path d="M99.5205 30.9886V9.85938H102.092V28.7876H118.381V30.9886H99.5205ZM114.976 9.85938H118.406L127.836 20.2039L137.267 9.85938H140.696L129.122 22.1847V30.9886H126.55V22.1847L114.976 9.85938ZM146.762 30.9886H144.19V9.85938H148.704L167.565 28.3474V9.85938H170.137V30.9886H166.708L146.762 12.0603V30.9886ZM188.904 19.8462L201 30.9886H197.356L187.109 21.552L177.21 30.9886H173.566L185.26 19.8462L174.423 9.85938H178.067L187.042 18.1405L195.735 9.85938H199.379L188.904 19.8462Z" fill="#EB5757"/>
<path d="M20.053 0C31.1279 0 40.1059 9.17816 40.1059 20.5C40.1059 31.8218 31.1279 41 20.053 41C8.97801 41 0 31.8218 0 20.5C0 9.17816 8.97801 0 20.053 0ZM21.6704 30.3882L21.6249 30.4202C17.9175 33.0039 13.7293 34.9208 9.20077 35.8718C12.2339 38.1869 15.9686 39.5529 20.0075 39.5529C25.34 39.5529 30.1422 37.1718 33.5002 33.3681C32.4434 32.79 31.3501 32.0478 30.2741 31.1539C27.2409 31.2512 24.3881 31.0221 21.6704 30.3882ZM7.11017 21.7059L7.0662 21.7889C5.85277 24.112 4.81771 26.6884 4.01059 29.5377V29.5387C4.91049 31.1972 6.05081 32.7024 7.38396 34.0059C12.9825 33.1162 17.3088 31.8231 20.7607 30.0764L20.7599 30.0761C19.7236 29.798 18.7064 29.4602 17.7059 29.0583C17.2217 29.7345 16.4359 30.1744 15.5489 30.1744C14.0773 30.1744 12.8844 28.9637 12.8844 27.4703C12.8844 27.1727 12.9318 26.8863 13.0193 26.6185C11.002 25.3121 9.0405 23.688 7.11017 21.7059ZM35.3876 30.6294C33.8484 30.8209 32.3559 30.9525 30.9051 31.0163C31.7923 31.7178 32.7282 32.317 33.6943 32.8C34.3138 32.1208 34.8802 31.3954 35.3876 30.6294ZM26.1539 27.0118L26.0801 27.0743C25.1366 27.8725 24.1488 28.6311 23.1199 29.3437C24.7248 29.4574 26.4479 29.449 28.3101 29.3224C27.5578 28.6185 26.8324 27.8468 26.1539 27.0118ZM36.3779 11.8176L36.3605 11.8643C35.8524 13.2142 35.2568 14.5502 34.5794 15.8604C35.0671 16.3508 35.3699 17.0344 35.3699 17.7905C35.3699 19.2837 34.1888 20.4941 32.7319 20.4941C32.4287 20.4941 32.1376 20.4417 31.8665 20.3453C30.4135 22.4247 28.7469 24.3905 26.8946 26.1849C27.5626 27.2729 28.3142 28.2771 29.1299 29.1824C31.4992 28.9671 34.0928 28.5489 36.9529 27.9356L36.9543 27.9351C37.9195 25.6545 38.4545 23.1384 38.4545 20.4941C38.4545 17.3629 37.7043 14.4112 36.3779 11.8176ZM22.4653 6.27059C20.7542 7.10451 19.0583 8.10267 17.4171 9.28147C17.7103 9.79319 17.8783 10.3893 17.8783 11.0257C17.8783 12.9263 16.3803 14.4671 14.5323 14.4671C13.7251 14.4671 12.9847 14.1731 12.4067 13.6835C10.6238 15.5892 8.98156 17.782 7.54935 20.2902C9.25229 22.6126 11.047 24.4683 13.046 25.8812L13.0463 25.8803C13.5253 25.1713 14.323 24.7071 15.226 24.7071C16.6908 24.7071 17.8783 25.9284 17.8783 27.435C17.8783 27.7233 17.8348 28.0012 17.7542 28.2621L17.7536 28.2628C19.0721 28.7016 20.4803 29.0068 21.998 29.1824C23.3796 28.3495 24.6077 27.428 25.715 26.4138C22.1586 21.4431 20.0266 14.4896 22.4653 6.27059ZM2.20683 15.9176L2.18232 16.0159C1.83544 17.4588 1.65142 18.9674 1.65142 20.5202C1.65142 22.7119 2.01802 24.8157 2.69174 26.7706C3.51942 24.8072 4.56974 22.6869 5.89793 20.5449C4.65868 19.1619 3.43052 17.6233 2.20683 15.9176ZM29.0252 4.1L28.8881 4.13712C27.7936 4.43788 26.6855 4.80009 25.5745 5.22819L25.5735 5.22825C22.2813 12.9429 23.408 20.5094 26.6308 26.0471C28.3694 24.3148 29.7999 22.3296 31.0682 20.0725C30.4524 19.5714 30.057 18.794 30.057 17.9209C30.057 16.4102 31.241 15.1854 32.7016 15.1854C32.9408 15.1854 33.1725 15.2183 33.3929 15.2798C34.0717 13.6885 34.7258 11.9919 35.3876 10.1863C33.7705 7.66922 31.5869 5.57578 29.0252 4.1ZM20.0122 1.68824C12.4504 1.68824 5.94666 6.27332 3.06692 12.8465C4.27559 15.1736 5.47809 17.2393 6.71975 19.0529C8.13894 16.9857 9.83087 14.9261 11.8457 12.9946C11.4907 12.4535 11.2838 11.8041 11.2838 11.1059C11.2838 9.2187 12.7953 7.68885 14.6598 7.68885C15.6406 7.68885 16.5238 8.11215 17.1406 8.78809C18.876 7.65602 20.7797 6.62712 22.8675 5.73964C23.2483 4.58139 23.7222 3.39854 24.2981 2.19314L24.2995 2.19285C22.9234 1.86287 21.4879 1.68824 20.0122 1.68824ZM26.7542 3.13529L26.5599 3.51695C26.3425 3.95258 26.1397 4.38823 25.9509 4.82353L25.9517 4.8235C26.7875 4.52523 27.6519 4.25226 28.546 4.00705C27.9675 3.68071 27.3695 3.38926 26.7542 3.13529Z" fill="#EB5757"/>
</svg>
